<svg width="22" height="10" viewBox="0 0 22 10" fill="none" xmlns="http://www.w3.org/2000/svg">
<path d="M21.0585 5.50614L16.7526 9.79054C16.6179 9.9246 16.4349 10 16.2443 10C16.0537 10 15.8708 9.9246 15.7361 9.79054C15.6013 9.65649 15.5256 9.47445 15.5256 9.28479C15.5256 9.09514 15.6013 8.9131 15.7361 8.77904L18.8164 5.71484H0.988522C0.797917 5.71484 0.615736 5.63943 0.481011 5.50538C0.346286 5.37209 0.270508 5.19004 0.270508 5.00038C0.270508 4.81149 0.346286 4.62945 0.481011 4.49615C0.615736 4.3621 0.797917 4.2867 0.988522 4.2867H18.8164L15.7376 1.22097C15.6021 1.08692 15.5271 0.904875 15.5271 0.715219C15.5271 0.525562 15.6021 0.343521 15.7376 0.209467C15.8723 0.0754126 16.0553 0 16.2459 0C16.4365 0 16.6194 0.0754126 16.7542 0.209467L21.06 4.49388C21.1266 4.56014 21.1794 4.63935 21.2161 4.72618C21.2521 4.81301 21.2705 4.90594 21.2705 5.00038C21.2705 5.09407 21.2514 5.187 21.2154 5.27383C21.1787 5.36066 21.1258 5.43987 21.0585 5.50614Z" fill="#EBC373"/>
</svg>
