<svg width="35" height="29" viewBox="0 0 35 29" fill="none" xmlns="http://www.w3.org/2000/svg">
<path d="M4.64844 24.8906C4.64844 25.1082 4.73486 25.3168 4.8887 25.4707C5.04254 25.6245 5.25119 25.7109 5.46875 25.7109H7.31445C7.49739 25.7109 7.67509 25.6498 7.81929 25.5372C7.96348 25.4246 8.06591 25.2671 8.11029 25.0896L9.39046 19.9688H4.64844V24.8906ZM10.1172 19.2225C12.8205 19.6341 18.772 21.7567 22.6953 25.3577V3.64228C18.772 7.24331 12.8205 9.36587 10.1172 9.77746V19.2225ZM25.7031 0.28125C25.1232 0.281901 24.5671 0.512579 24.157 0.922673C23.747 1.33277 23.5163 1.88879 23.5156 2.46875V26.5312C23.5156 27.1114 23.7461 27.6678 24.1563 28.078C24.5666 28.4883 25.123 28.7188 25.7031 28.7188C26.2833 28.7188 26.8397 28.4883 27.2499 28.078C27.6602 27.6678 27.8906 27.1114 27.8906 26.5312V2.46875C27.89 1.88879 27.6593 1.33277 27.2492 0.922673C26.8391 0.512579 26.2831 0.281901 25.7031 0.28125ZM4.64844 9.85156H9.29688V19.1484H4.64844V9.85156ZM0.273438 12.3125V16.6875C0.274161 17.34 0.53367 17.9655 0.995029 18.4268C1.45639 18.8882 2.08192 19.1477 2.73438 19.1484H3.82812V9.85156H2.73438C2.08192 9.85229 1.45639 10.1118 0.995029 10.5732C0.53367 11.0345 0.274161 11.66 0.273438 12.3125ZM33.9062 13.6797H31.1719C30.9543 13.6797 30.7457 13.7661 30.5918 13.92C30.438 14.0738 30.3516 14.2824 30.3516 14.5C30.3516 14.7176 30.438 14.9262 30.5918 15.08C30.7457 15.2339 30.9543 15.3203 31.1719 15.3203H33.9062C34.1238 15.3203 34.3325 15.2339 34.4863 15.08C34.6401 14.9262 34.7266 14.7176 34.7266 14.5C34.7266 14.2824 34.6401 14.0738 34.4863 13.92C34.3325 13.7661 34.1238 13.6797 33.9062 13.6797ZM29.8222 9.39602C29.9451 9.39601 30.0664 9.36825 30.177 9.3148L32.6416 8.12993C32.8377 8.03566 32.9883 7.86735 33.0603 7.66204C33.1322 7.45673 33.1197 7.23123 33.0254 7.03516C32.9312 6.83908 32.7629 6.68849 32.5575 6.6165C32.3522 6.54452 32.1267 6.55704 31.9307 6.65132L29.4664 7.83626C29.2987 7.91678 29.1634 8.05189 29.0826 8.21942C29.0019 8.38695 28.9804 8.57696 29.0218 8.75828C29.0632 8.9396 29.165 9.10148 29.3105 9.21735C29.4559 9.33323 29.6365 9.39623 29.8225 9.39602H29.8222ZM32.6416 20.8701L30.1773 19.6852C29.9815 19.5927 29.757 19.5813 29.5528 19.6537C29.3487 19.726 29.1814 19.8762 29.0876 20.0714C28.9937 20.2666 28.9808 20.491 29.0518 20.6956C29.1228 20.9003 29.2718 21.0686 29.4664 21.1637L31.9307 22.3487C32.1267 22.443 32.3522 22.4555 32.5575 22.3835C32.7629 22.3115 32.9312 22.1609 33.0254 21.9648C33.1197 21.7688 33.1322 21.5433 33.0603 21.338C32.9883 21.1327 32.8377 20.9643 32.6416 20.8701Z" fill="#EBC373"/>
</svg>
