<svg width="34" height="33" viewBox="0 0 34 33" fill="none" xmlns="http://www.w3.org/2000/svg">
<path fill-rule="evenodd" clip-rule="evenodd" d="M13.8225 5.96504H19.0499C19.2071 5.96504 19.3391 5.83242 19.3391 5.67588V0.480566C19.3391 0.321289 19.2099 0.191406 19.0499 0.191406H10.4476C10.371 0.191587 10.2976 0.222132 10.2435 0.27634C10.1895 0.330549 10.1591 0.403995 10.1591 0.480566V5.67588C10.1591 5.75245 10.1895 5.8259 10.2435 5.8801C10.2976 5.93431 10.371 5.96486 10.4476 5.96504H11.3308C11.5577 5.96504 11.7409 6.14824 11.7409 6.37519V7.99395L13.5237 6.09424C13.562 6.05336 13.6083 6.02079 13.6597 5.99856C13.711 5.97633 13.7665 5.96492 13.8225 5.96504ZM8.79053 31.6873V26.5118C8.79053 26.2855 8.60664 26.1017 8.38037 26.1017H4.40322C2.75713 26.1017 1.41797 24.7625 1.41797 23.1164V18.74C1.41797 18.5138 1.23408 18.3299 1.00781 18.3299C0.781543 18.3299 0.597656 18.5138 0.597656 18.74V23.1164C0.597656 24.4262 1.26279 25.5835 2.27314 26.2685L1.53418 31.6313C1.50273 31.8555 1.65996 32.0626 1.88418 32.0934C1.90332 32.0961 1.92178 32.0975 1.94092 32.0975C2.14258 32.0975 2.31826 31.9484 2.34629 31.7427L2.66279 29.4472H7.97021V31.6873C7.97021 31.9136 8.1541 32.0975 8.38037 32.0975C8.60596 32.0975 8.79053 31.9143 8.79053 31.6873ZM32.7266 23.1171C32.7266 24.7632 31.3867 26.1023 29.7399 26.1023H25.7642C25.5379 26.1023 25.354 26.2862 25.354 26.5125V31.688C25.354 31.9143 25.5379 32.0981 25.7642 32.0981C25.9904 32.0981 26.1743 31.9143 26.1743 31.688V29.4479H31.4817L31.7969 31.7434C31.8249 31.9491 32.0006 32.0981 32.2043 32.0981C32.2207 32.0981 32.2405 32.0968 32.2604 32.094C32.4839 32.0633 32.6425 31.8562 32.609 31.6319L31.8721 26.2691C32.8824 25.5842 33.5469 24.4269 33.5469 23.1171V18.74C33.5469 18.5138 33.363 18.3299 33.1367 18.3299C32.9104 18.3299 32.7266 18.5138 32.7266 18.74V23.1171ZM25.8079 19.4947C26.0349 19.4947 26.2181 19.6786 26.2181 19.9049C26.2181 20.1318 26.0349 20.315 25.8079 20.315H17.4817V31.6873C17.4817 31.9136 17.2979 32.0975 17.0716 32.0975C16.8453 32.0975 16.6614 31.9136 16.6614 31.6873V20.315H8.33662C8.10967 20.315 7.92646 20.1318 7.92646 19.9049C7.92646 19.6786 8.10967 19.4947 8.33662 19.4947H25.8079ZM5.39717 10.5383C6.54971 10.5383 7.4876 9.60039 7.4876 8.44785C7.4876 7.29531 6.54971 6.35742 5.39717 6.35742C4.24463 6.35742 3.30674 7.29531 3.30674 8.44785C3.30674 9.60039 4.24463 10.5383 5.39717 10.5383ZM9.81318 16.2073L12.1374 16.6722C13.0411 16.8526 13.3781 17.3544 13.3084 17.7447C13.2394 18.1316 12.7602 18.4851 11.8708 18.3456C11.6568 18.3121 11.3916 18.2807 11.0847 18.2444C10.0791 18.1255 8.20742 17.904 7.79248 17.3968L6.09717 15.3248C5.9543 15.1498 5.6959 15.1238 5.52021 15.2674C5.34521 15.4109 5.31924 15.6693 5.46279 15.8443L6.73906 17.4043V21.2864C6.73906 21.5127 6.92295 21.6966 7.14922 21.6966H11.2077C12.2878 21.7328 13.1648 22.7035 13.1648 23.8629V29.7268C13.1648 30.2449 13.0192 30.6646 12.7444 30.9388C12.5113 31.1712 12.1866 31.299 11.8291 31.299C11.1093 31.299 10.3437 30.7692 10.3437 29.7883V24.8828C10.3437 24.6565 10.1604 24.4727 9.9335 24.4727H4.81748C3.97187 24.4727 3.2835 23.7843 3.2835 22.9387V13.4333C3.2835 12.911 3.70869 12.4858 4.23096 12.4858H5.7916C6.13613 12.4858 6.47793 12.706 6.64268 13.0348C6.65498 13.0594 6.66934 13.0826 6.68643 13.1045C6.81426 13.2672 6.96396 13.4736 7.12256 13.6924C7.86904 14.7226 8.79805 16.0043 9.81318 16.2073ZM29.9129 12.4858C30.4352 12.4858 30.8617 12.911 30.8617 13.4333V22.9387C30.8617 23.7843 30.172 24.4727 29.3264 24.4727H24.2097C23.9827 24.4727 23.7995 24.6565 23.7995 24.8828V29.7883C23.7995 30.7692 23.0339 31.299 22.3141 31.299C21.9565 31.299 21.6318 31.1712 21.3987 30.9388C21.1239 30.6646 20.9783 30.2449 20.9783 29.7268V23.8629C20.9783 22.7035 21.8554 21.7328 22.9355 21.6966H26.9939C27.2202 21.6966 27.4041 21.5127 27.4041 21.2864V17.4043L28.6804 15.8443C28.8239 15.6693 28.7986 15.4109 28.6229 15.2674C28.4473 15.1238 28.1889 15.1498 28.046 15.3248L26.3507 17.3968C25.9357 17.904 24.0641 18.1255 23.0585 18.2444C22.7516 18.2807 22.4863 18.3121 22.2724 18.3456C21.383 18.4851 20.9038 18.1323 20.8348 17.7447C20.765 17.3544 21.1021 16.8526 22.0058 16.6722L24.33 16.2073C25.3458 16.0036 26.2748 14.7219 27.0213 13.6924C27.1799 13.4736 27.3296 13.2672 27.4574 13.1045C27.4745 13.0826 27.4889 13.0594 27.5012 13.0348C27.6659 12.706 28.0077 12.4858 28.3522 12.4858H29.9129ZM28.746 6.3581C27.5948 6.3581 26.6562 7.296 26.6562 8.44854C26.6562 9.60108 27.5941 10.539 28.746 10.539C29.8985 10.539 30.8364 9.60108 30.8364 8.44854C30.8364 7.296 29.8985 6.3581 28.746 6.3581ZM20.1594 2.01318H23.172C23.2485 2.01318 23.322 2.04355 23.3762 2.09763C23.4304 2.15171 23.461 2.22509 23.4611 2.30166V7.49697C23.4611 7.65625 23.3313 7.78613 23.172 7.78613H22.2888C22.0625 7.78613 21.8786 7.97002 21.8786 8.19629V9.81572L20.0965 7.91602C20.0581 7.87508 20.0117 7.84244 19.9602 7.8201C19.9087 7.79776 19.8532 7.7862 19.7971 7.78613H16.1187C15.9621 7.78613 15.8295 7.65352 15.8295 7.49697V6.78535H19.0499C19.6617 6.78535 20.1594 6.28769 20.1594 5.67588V2.01318ZM14.3386 5.15566C14.3386 4.92939 14.5225 4.74551 14.7487 4.74551C14.9757 4.74551 15.1589 4.92939 15.1589 5.15566C15.1589 5.38262 14.9757 5.56582 14.7487 5.56582C14.5225 5.5665 14.3386 5.38262 14.3386 5.15566ZM14.1745 2.16016C14.1745 2.38643 13.9906 2.57031 13.7644 2.57031C13.5374 2.57031 13.3542 2.38643 13.3542 2.16016C13.3542 1.77461 13.5101 1.42598 13.7623 1.17373C14.0152 0.921484 14.3639 0.764941 14.7487 0.764941C15.1343 0.764941 15.4829 0.921484 15.7352 1.17373C15.9881 1.42598 16.1439 1.77461 16.1439 2.16016C16.1439 2.46094 16.0476 2.73984 15.8842 2.96885C15.7145 3.20631 15.4751 3.38503 15.1992 3.48018C15.1855 3.48496 15.1753 3.4918 15.1691 3.5C15.163 3.50889 15.1589 3.52187 15.1589 3.53828V3.95937C15.159 4.01329 15.1484 4.0667 15.1279 4.11654C15.1073 4.16639 15.0771 4.21168 15.039 4.24984C15.0009 4.288 14.9557 4.31827 14.9058 4.33893C14.856 4.35958 14.8027 4.37021 14.7487 4.37021C14.5225 4.37021 14.3386 4.18633 14.3386 3.95937V3.53828C14.3386 3.34893 14.398 3.17256 14.5026 3.02627C14.6072 2.8793 14.7563 2.76582 14.9367 2.7043C15.0509 2.66533 15.1486 2.5915 15.2177 2.49512C15.2872 2.39732 15.3243 2.28015 15.3236 2.16016C15.3237 2.08463 15.309 2.00982 15.2801 1.94001C15.2513 1.87021 15.2089 1.80679 15.1555 1.75338C15.1021 1.69997 15.0387 1.65763 14.9689 1.62878C14.8991 1.59993 14.8243 1.58514 14.7487 1.58525C14.5901 1.58525 14.4466 1.64951 14.342 1.75342C14.2887 1.80689 14.2465 1.87034 14.2178 1.94013C14.1891 2.00992 14.1743 2.08468 14.1745 2.16016Z" fill="#EBC373"/>
</svg>
