<svg width="33" height="27" viewBox="0 0 33 27" fill="none" xmlns="http://www.w3.org/2000/svg">
<path fill-rule="evenodd" clip-rule="evenodd" d="M16.8923 4.70381V19.0572C16.8923 19.2835 16.7084 19.4674 16.4822 19.4674C16.2559 19.4674 16.072 19.2835 16.072 19.0572V4.70381L14.5086 6.26719C14.3487 6.42715 14.0889 6.42715 13.9283 6.26719C13.8515 6.19028 13.8083 6.08604 13.8083 5.97734C13.8083 5.86865 13.8515 5.7644 13.9283 5.6875L16.1923 3.42344C16.2689 3.34688 16.3735 3.30312 16.4822 3.30312C16.5909 3.30312 16.6955 3.34688 16.772 3.42344L19.0361 5.6875C19.0747 5.72549 19.1053 5.77075 19.1263 5.82066C19.1473 5.87057 19.1582 5.92413 19.1584 5.97828C19.1586 6.03242 19.1481 6.08606 19.1274 6.13611C19.1068 6.18617 19.0764 6.23163 19.0381 6.2699C18.9998 6.30816 18.9543 6.33846 18.9042 6.35905C18.8541 6.37963 18.8005 6.3901 18.7463 6.38985C18.6922 6.3896 18.6386 6.37863 18.5888 6.35758C18.5389 6.33652 18.4937 6.3058 18.4557 6.26719L16.8923 4.70381ZM3.63062 25.239C3.81519 25.239 3.96626 25.0886 3.96626 24.904C3.96626 24.7188 3.81519 24.5684 3.63062 24.5684C3.44536 24.5684 3.29497 24.7188 3.29497 24.904C3.29497 25.0893 3.44536 25.239 3.63062 25.239ZM6.59331 24.9047C6.59331 24.7194 6.44224 24.569 6.25767 24.569C6.07241 24.569 5.92271 24.7194 5.92271 24.9047C5.92271 25.0893 6.0731 25.2396 6.25767 25.2396C6.44224 25.239 6.59331 25.0893 6.59331 24.9047ZM9.22036 24.9047C9.22036 24.7194 9.06929 24.569 8.88472 24.569C8.69946 24.569 8.54907 24.7194 8.54907 24.9047C8.54907 25.0893 8.69946 25.2396 8.88472 25.2396C9.06929 25.239 9.22036 25.0893 9.22036 24.9047ZM29.3337 24.569C29.1492 24.569 28.9988 24.7194 28.9988 24.9047C28.9988 25.0893 29.1492 25.2396 29.3337 25.2396C29.519 25.2396 29.6694 25.0893 29.6694 24.9047C29.6694 24.7194 29.519 24.569 29.3337 24.569ZM26.7067 24.569C26.5221 24.569 26.3717 24.7194 26.3717 24.9047C26.3717 25.0893 26.5221 25.2396 26.7067 25.2396C26.8919 25.2396 27.0423 25.0893 27.0423 24.9047C27.0423 24.7194 26.8919 24.569 26.7067 24.569ZM24.4153 24.9047C24.4153 24.7194 24.2649 24.569 24.0796 24.569C23.8951 24.569 23.7447 24.7194 23.7447 24.9047C23.7447 25.0893 23.8951 25.2396 24.0796 25.2396C24.2649 25.239 24.4153 25.0893 24.4153 24.9047ZM32.1365 23.1807V24.904C32.1365 25.8542 31.3633 26.6267 30.4131 26.6267H2.55122C1.60103 26.6267 0.827881 25.8542 0.827881 24.904V23.1807H12.0074C12.0115 24.109 12.7682 24.8637 13.6979 24.8637H19.2665C20.1961 24.8637 20.9529 24.109 20.957 23.1807H32.1365ZM24.0796 26.0593C23.4425 26.0593 22.9244 25.5411 22.9244 24.904C22.9244 24.2662 23.4425 23.748 24.0796 23.748C24.7174 23.748 25.2356 24.2662 25.2356 24.904C25.2356 25.5418 24.7174 26.0593 24.0796 26.0593ZM26.7067 26.0593C26.0696 26.0593 25.5514 25.5411 25.5514 24.904C25.5514 24.2662 26.0696 23.748 26.7067 23.748C27.3445 23.748 27.8626 24.2662 27.8626 24.904C27.8626 25.5418 27.3445 26.0593 26.7067 26.0593ZM29.3337 26.0593C28.6966 26.0593 28.1785 25.5411 28.1785 24.904C28.1785 24.2662 28.6966 23.748 29.3337 23.748C29.9715 23.748 30.4897 24.2662 30.4897 24.904C30.4897 25.5418 29.9715 26.0593 29.3337 26.0593ZM10.0407 24.9047C10.0407 25.5418 9.52183 26.06 8.88472 26.06C8.24692 26.06 7.72876 25.5418 7.72876 24.9047C7.72876 24.2669 8.24692 23.7487 8.88472 23.7487C9.52183 23.748 10.0407 24.2669 10.0407 24.9047ZM7.41362 24.9047C7.41362 25.5418 6.89478 26.06 6.25767 26.06C5.61987 26.06 5.10171 25.5418 5.10171 24.9047C5.10171 24.2669 5.61987 23.7487 6.25767 23.7487C6.89478 23.748 7.41362 24.2669 7.41362 24.9047ZM4.78657 24.9047C4.78657 25.5418 4.26772 26.06 3.63062 26.06C2.99282 26.06 2.47466 25.5418 2.47466 24.9047C2.47466 24.2669 2.99282 23.7487 3.63062 23.7487C4.26772 23.748 4.78657 24.2669 4.78657 24.9047ZM4.45776 2.40078C4.23081 2.40078 4.04761 2.58467 4.04761 2.81094V19.9589C4.04761 20.1858 4.23081 20.369 4.45776 20.369H28.5066C28.7335 20.369 28.9167 20.1858 28.9167 19.9589V2.81094C28.9167 2.58467 28.7335 2.40078 28.5066 2.40078H4.45776ZM20.5468 22.3604H30.4473V1.25371C30.4473 0.796387 30.1752 0.410156 29.854 0.410156H3.1104C2.78911 0.410156 2.51704 0.796387 2.51704 1.25371V22.361H12.4175C12.6438 22.361 12.8277 22.5449 12.8277 22.7712V23.1731C12.8277 23.653 13.218 24.044 13.6979 24.044H19.2665C19.7463 24.044 20.1367 23.653 20.1367 23.1731V22.7712C20.1367 22.5442 20.3206 22.3604 20.5468 22.3604ZM4.86792 3.22041V19.5487H28.0964V3.22041H4.86792ZM22.0583 10.0249H26.0532L24.4898 8.46152C24.413 8.38462 24.3698 8.28037 24.3698 8.17168C24.3698 8.06299 24.413 7.95874 24.4898 7.88184C24.6498 7.72188 24.9095 7.72188 25.0702 7.88184L27.3335 10.1452C27.4103 10.2222 27.4535 10.3264 27.4539 10.4351C27.4539 10.5444 27.4101 10.6483 27.3335 10.7256L25.0702 12.989C24.9931 13.066 24.8886 13.1093 24.7796 13.1093C24.6986 13.1092 24.6193 13.0851 24.552 13.04C24.4846 12.995 24.4321 12.9309 24.401 12.856C24.37 12.7811 24.3619 12.6987 24.3777 12.6192C24.3935 12.5397 24.4325 12.4666 24.4898 12.4093L26.0532 10.8452H22.0583C21.0493 10.8452 20.229 11.7373 20.229 12.8331V19.0565C20.229 19.2828 20.0451 19.4667 19.8188 19.4667C19.5918 19.4667 19.4086 19.2828 19.4086 19.0565V12.8331C19.4086 11.2854 20.5967 10.0249 22.0583 10.0249ZM6.91118 10.0249H10.9061C12.3676 10.0249 13.5557 11.2848 13.5557 12.8331V19.0565C13.5557 19.2828 13.3725 19.4667 13.1456 19.4667C12.9193 19.4667 12.7354 19.2828 12.7354 19.0565V12.8331C12.7354 11.7373 11.9151 10.8452 10.9061 10.8452H6.91118L8.47456 12.4093C8.53185 12.4666 8.57085 12.5397 8.58665 12.6192C8.60245 12.6987 8.59433 12.7811 8.56331 12.856C8.5323 12.9309 8.47978 12.995 8.4124 13.04C8.34502 13.0851 8.26579 13.1092 8.18472 13.1093C8.07944 13.1093 7.97485 13.0689 7.89487 12.989L5.63081 10.7256C5.55392 10.6484 5.51067 10.544 5.5105 10.4351C5.5105 10.3264 5.55425 10.2225 5.63081 10.1452L7.89487 7.88184C8.05483 7.72188 8.3146 7.72188 8.47456 7.88184C8.63452 8.0418 8.63452 8.30156 8.47456 8.46152L6.91118 10.0249Z" fill="#EBC373"/>
</svg>
