<svg width="10" height="18" viewBox="0 0 10 18" fill="none" xmlns="http://www.w3.org/2000/svg">
<path d="M6.08203 17.9922V9.76562H8.82422L9.24609 6.56641H6.08203V4.52734C6.08203 4.07031 6.17871 3.69824 6.37207 3.41113C6.56543 3.12402 6.99609 2.98047 7.66406 2.98047H9.35156V0.132812C9.21094 0.0976562 8.91211 0.0654297 8.45508 0.0361328C7.99805 0.00683594 7.47656 -0.0078125 6.89062 -0.0078125C6.28125 -0.0078125 5.71875 0.0859375 5.20312 0.273438C4.69922 0.449219 4.26855 0.71582 3.91113 1.07324C3.55371 1.43066 3.27539 1.87305 3.07617 2.40039C2.87695 2.91602 2.77734 3.51953 2.77734 4.21094V6.56641H0V9.76562H2.77734V17.9922H6.08203Z" fill="#EBC373"/>
</svg>
