<svg width="9" height="8" viewBox="0 0 9 8" fill="none" xmlns="http://www.w3.org/2000/svg">
<path d="M8.08738 0.681641V5.55664C8.08738 5.70582 8.02812 5.8489 7.92263 5.95439C7.81714 6.05988 7.67407 6.11914 7.52488 6.11914C7.3757 6.11914 7.23262 6.05988 7.12713 5.95439C7.02165 5.8489 6.96238 5.70582 6.96238 5.55664V2.04102L1.92285 7.07961C1.81718 7.18528 1.67386 7.24465 1.52441 7.24465C1.37497 7.24465 1.23165 7.18528 1.12598 7.07961C1.0203 6.97394 0.960938 6.83062 0.960938 6.68117C0.960937 6.53173 1.0203 6.38841 1.12598 6.28273L6.16551 1.24414H2.64988C2.5007 1.24414 2.35762 1.18488 2.25213 1.07939C2.14665 0.973899 2.08738 0.830825 2.08738 0.681641C2.08738 0.532456 2.14665 0.389382 2.25213 0.283893C2.35762 0.178404 2.5007 0.119141 2.64988 0.119141H7.52488C7.67407 0.119141 7.81714 0.178404 7.92263 0.283893C8.02812 0.389382 8.08738 0.532456 8.08738 0.681641Z" fill="#CCCFFF" fill-opacity="0.5"/>
</svg>
