<svg width="18" height="18" viewBox="0 0 18 18" fill="none" xmlns="http://www.w3.org/2000/svg">
<path d="M9 1.60938C10.207 1.60938 10.9922 1.61523 11.3555 1.62695C11.7188 1.63867 12.1406 1.65625 12.6211 1.67969C13.0781 1.69141 13.4326 1.72656 13.6846 1.78516C13.9365 1.84375 14.1445 1.90234 14.3086 1.96094C14.5195 2.04297 14.707 2.13965 14.8711 2.25098C15.0352 2.3623 15.1875 2.48828 15.3281 2.62891C15.4805 2.78125 15.6123 2.93945 15.7236 3.10352C15.835 3.26758 15.9258 3.44922 15.9961 3.64844C16.0664 3.82422 16.1309 4.03809 16.1895 4.29004C16.248 4.54199 16.2891 4.89062 16.3125 5.33594C16.3242 5.82812 16.3389 6.25586 16.3564 6.61914C16.374 6.98242 16.3828 7.77344 16.3828 8.99219C16.3828 10.1992 16.377 10.9844 16.3652 11.3477C16.3535 11.7109 16.3359 12.1328 16.3125 12.6133C16.3008 13.0703 16.2656 13.4248 16.207 13.6768C16.1484 13.9287 16.0898 14.1367 16.0312 14.3008C15.9492 14.5117 15.8525 14.6992 15.7412 14.8633C15.6299 15.0273 15.5039 15.1797 15.3633 15.3203C15.2109 15.4727 15.0527 15.6045 14.8887 15.7158C14.7246 15.8271 14.543 15.918 14.3438 15.9883C14.168 16.0586 13.9541 16.123 13.7021 16.1816C13.4502 16.2402 13.1016 16.2812 12.6562 16.3047C12.1641 16.3164 11.7363 16.3311 11.373 16.3486C11.0098 16.3662 10.2188 16.375 9 16.375C7.79297 16.375 7.00781 16.3691 6.64453 16.3574C6.28125 16.3457 5.85938 16.3281 5.37891 16.3047C4.92188 16.293 4.56738 16.2578 4.31543 16.1992C4.06348 16.1406 3.85547 16.082 3.69141 16.0234C3.48047 15.9414 3.29297 15.8447 3.12891 15.7334C2.96484 15.6221 2.8125 15.4961 2.67188 15.3555C2.51953 15.2031 2.3877 15.0449 2.27637 14.8809C2.16504 14.7168 2.07422 14.5352 2.00391 14.3359C1.93359 14.1602 1.86914 13.9463 1.81055 13.6943C1.75195 13.4424 1.71094 13.0938 1.6875 12.6484C1.67578 12.1562 1.66113 11.7285 1.64355 11.3652C1.62598 11.002 1.61719 10.2109 1.61719 8.99219C1.61719 7.78516 1.62305 7 1.63477 6.63672C1.64648 6.27344 1.66406 5.85156 1.6875 5.37109C1.69922 4.91406 1.73438 4.55957 1.79297 4.30762C1.85156 4.05566 1.91016 3.84766 1.96875 3.68359C2.05078 3.47266 2.14746 3.28516 2.25879 3.12109C2.37012 2.95703 2.49609 2.80469 2.63672 2.66406C2.78906 2.51172 2.94727 2.37988 3.11133 2.26855C3.27539 2.15723 3.45703 2.06641 3.65625 1.99609C3.83203 1.92578 4.0459 1.86133 4.29785 1.80273C4.5498 1.74414 4.89844 1.70312 5.34375 1.67969C5.83594 1.66797 6.26367 1.65332 6.62695 1.63574C6.99023 1.61816 7.78125 1.60938 9 1.60938ZM9 -0.0078125C7.76953 -0.0078125 6.9668 -0.00195312 6.5918 0.00976562C6.2168 0.0214844 5.78906 0.0390625 5.30859 0.0625C4.81641 0.0742188 4.39746 0.115234 4.05176 0.185547C3.70605 0.255859 3.39844 0.34375 3.12891 0.449219C2.83594 0.566406 2.55469 0.709961 2.28516 0.879883C2.01562 1.0498 1.75781 1.25781 1.51172 1.50391C1.26562 1.75 1.06055 2.00488 0.896484 2.26855C0.732422 2.53223 0.585938 2.81641 0.457031 3.12109C0.351562 3.40234 0.266602 3.71289 0.202148 4.05273C0.137695 4.39258 0.09375 4.80859 0.0703125 5.30078C0.0585938 5.76953 0.0439453 6.19434 0.0263672 6.5752C0.00878906 6.95605 0 7.76172 0 8.99219C0 10.2227 0.00585937 11.0254 0.0175781 11.4004C0.0292969 11.7754 0.046875 12.2031 0.0703125 12.6836C0.0820312 13.1758 0.123047 13.5947 0.193359 13.9404C0.263672 14.2861 0.351562 14.5938 0.457031 14.8633C0.574219 15.1562 0.717773 15.4375 0.887695 15.707C1.05762 15.9766 1.26562 16.2344 1.51172 16.4805C1.75781 16.7266 2.0127 16.9316 2.27637 17.0957C2.54004 17.2598 2.82422 17.4062 3.12891 17.5352C3.41016 17.6406 3.7207 17.7256 4.06055 17.79C4.40039 17.8545 4.81641 17.8984 5.30859 17.9219C5.77734 17.9336 6.20215 17.9482 6.58301 17.9658C6.96387 17.9834 7.76953 17.9922 9 17.9922C10.2305 17.9922 11.0332 17.9863 11.4082 17.9746C11.7832 17.9629 12.2109 17.9453 12.6914 17.9219C13.1836 17.9102 13.6025 17.8691 13.9482 17.7988C14.2939 17.7285 14.6016 17.6406 14.8711 17.5352C15.1641 17.418 15.4453 17.2744 15.7148 17.1045C15.9844 16.9346 16.2422 16.7266 16.4883 16.4805C16.7344 16.2344 16.9395 15.9795 17.1035 15.7158C17.2676 15.4521 17.4141 15.168 17.543 14.8633C17.6484 14.582 17.7334 14.2715 17.7979 13.9316C17.8623 13.5918 17.9062 13.1758 17.9297 12.6836C17.9414 12.2148 17.9561 11.79 17.9736 11.4092C17.9912 11.0283 18 10.2227 18 8.99219C18 7.76172 17.9941 6.95898 17.9824 6.58398C17.9707 6.20898 17.9531 5.78125 17.9297 5.30078C17.918 4.80859 17.877 4.38965 17.8066 4.04395C17.7363 3.69824 17.6484 3.39062 17.543 3.12109C17.4258 2.82812 17.2822 2.54688 17.1123 2.27734C16.9424 2.00781 16.7344 1.75 16.4883 1.50391C16.2422 1.25781 15.9873 1.05273 15.7236 0.888672C15.46 0.724609 15.1758 0.578125 14.8711 0.449219C14.5898 0.34375 14.2793 0.258789 13.9395 0.194336C13.5996 0.129883 13.1836 0.0859375 12.6914 0.0625C12.2227 0.0507812 11.7979 0.0361328 11.417 0.0185547C11.0361 0.000976562 10.2305 -0.0078125 9 -0.0078125ZM9 4.35156C8.35547 4.35156 7.75195 4.47461 7.18945 4.7207C6.62695 4.95508 6.13477 5.2832 5.71289 5.70508C5.29102 6.12695 4.96289 6.61914 4.72852 7.18164C4.48242 7.74414 4.35938 8.34766 4.35938 8.99219C4.35938 9.63672 4.48242 10.2402 4.72852 10.8027C4.96289 11.3652 5.29102 11.8574 5.71289 12.2793C6.13477 12.7012 6.62695 13.0293 7.18945 13.2637C7.75195 13.5098 8.35547 13.6328 9 13.6328C9.64453 13.6328 10.248 13.5098 10.8105 13.2637C11.373 13.0293 11.8652 12.7012 12.2871 12.2793C12.709 11.8574 13.0371 11.3652 13.2715 10.8027C13.5176 10.2402 13.6406 9.63672 13.6406 8.99219C13.6406 8.34766 13.5176 7.74414 13.2715 7.18164C13.0371 6.61914 12.709 6.12695 12.2871 5.70508C11.8652 5.2832 11.373 4.95508 10.8105 4.7207C10.248 4.47461 9.64453 4.35156 9 4.35156ZM9 12.0156C8.17969 12.0156 7.4707 11.7197 6.87305 11.1279C6.27539 10.5361 5.97656 9.82422 5.97656 8.99219C5.97656 8.17188 6.27246 7.46289 6.86426 6.86523C7.45605 6.26758 8.16797 5.96875 9 5.96875C9.82031 5.96875 10.5293 6.26465 11.127 6.85645C11.7246 7.44824 12.0234 8.16016 12.0234 8.99219C12.0234 9.8125 11.7275 10.5215 11.1357 11.1191C10.5439 11.7168 9.83203 12.0156 9 12.0156ZM14.8711 4.17578C14.8711 4.46875 14.7715 4.72363 14.5723 4.94043C14.373 5.15723 14.1211 5.26562 13.8164 5.26562C13.5234 5.26562 13.2686 5.16016 13.0518 4.94922C12.835 4.73828 12.7266 4.48047 12.7266 4.17578C12.7266 3.88281 12.832 3.63379 13.043 3.42871C13.2539 3.22363 13.5117 3.12109 13.8164 3.12109C14.1094 3.12109 14.3584 3.2207 14.5635 3.41992C14.7686 3.61914 14.8711 3.87109 14.8711 4.17578Z" fill="#EBC373"/>
</svg>
