<svg width="11" height="9" viewBox="0 0 11 9" fill="none" xmlns="http://www.w3.org/2000/svg">
<path d="M10.7816 5.1115L7.14438 8.74841C7.03058 8.86221 6.87604 8.92621 6.71503 8.92621C6.55403 8.92621 6.39948 8.86221 6.28568 8.74841C6.17188 8.63462 6.10787 8.48009 6.10787 8.31909C6.10787 8.1581 6.17188 8.00357 6.28568 7.88978L8.88765 5.28866H1.46198C1.30098 5.28866 1.14709 5.22465 1.03328 5.11086C0.919479 4.99771 0.855469 4.84318 0.855469 4.68218C0.855469 4.52183 0.919479 4.3673 1.03328 4.25416C1.14709 4.14036 1.30098 4.07636 1.46198 4.07636H8.88765L6.28698 1.47395C6.17253 1.36015 6.10917 1.20562 6.10917 1.04463C6.10917 0.883635 6.17253 0.729105 6.28698 0.61531C6.40079 0.501516 6.55533 0.4375 6.71633 0.4375C6.87734 0.4375 7.03188 0.501516 7.14568 0.61531L10.7829 4.25222C10.8391 4.30847 10.8837 4.37571 10.9148 4.44942C10.9451 4.52313 10.9607 4.60201 10.9607 4.68218C10.9607 4.76171 10.9445 4.8406 10.9141 4.9143C10.8831 4.98801 10.8385 5.05525 10.7816 5.1115Z" fill="#1B1B1B"/>
</svg>
