<svg width="19" height="12" viewBox="0 0 19 12" fill="none" xmlns="http://www.w3.org/2000/svg">
<path d="M14.5274 11.5819C14.422 11.7577 14.2638 11.8719 14.0528 11.9247C13.8419 11.9774 13.6485 11.9452 13.4728 11.828C12.7228 11.3827 11.9317 11.0194 11.0997 10.7381C10.256 10.4686 9.37119 10.2811 8.44541 10.1756C7.51963 10.0702 6.54697 10.0585 5.52744 10.1405C4.51963 10.2108 3.46494 10.3749 2.36338 10.6327C2.15244 10.6678 1.95615 10.6297 1.77451 10.5184C1.59287 10.4071 1.47275 10.246 1.41416 10.035C1.36729 9.82408 1.40244 9.62779 1.51963 9.44615C1.63682 9.26451 1.80088 9.1444 2.01182 9.0858C3.21885 8.81627 4.379 8.64049 5.49229 8.55846C6.60557 8.47643 7.6749 8.49401 8.70029 8.61119C9.72568 8.72838 10.7013 8.94518 11.6271 9.26158C12.5646 9.56627 13.4493 9.97643 14.2813 10.4921C14.4688 10.5975 14.586 10.7557 14.6329 10.9667C14.6798 11.1776 14.6446 11.3827 14.5274 11.5819ZM16.0743 8.13658C15.9337 8.35924 15.7345 8.50279 15.4767 8.56725C15.2188 8.6317 14.9728 8.59362 14.7384 8.45299C13.8829 7.93737 12.9337 7.51549 11.8907 7.18737C10.8478 6.84752 9.77256 6.61315 8.66514 6.48424C7.55771 6.35533 6.4415 6.3319 5.3165 6.41393C4.1915 6.48424 3.1251 6.67174 2.11729 6.97643C1.87119 7.05846 1.62803 7.03502 1.38779 6.90612C1.14756 6.77721 0.980566 6.58971 0.886816 6.34362C0.816504 6.0858 0.842871 5.83385 0.965918 5.58776C1.08896 5.34166 1.28525 5.18346 1.55479 5.11315C2.70322 4.76158 3.91025 4.53893 5.17588 4.44518C6.42979 4.35143 7.67783 4.37487 8.92002 4.51549C10.1622 4.65612 11.3692 4.91979 12.5411 5.30651C13.713 5.68151 14.7853 6.16783 15.7579 6.76549C15.9806 6.91783 16.1271 7.12584 16.1974 7.38951C16.2677 7.65319 16.2267 7.90221 16.0743 8.13658ZM17.8321 4.12877C17.6798 4.41002 17.4425 4.58873 17.1202 4.6649C16.7979 4.74108 16.4962 4.70299 16.2149 4.55065C15.1954 3.94127 14.0411 3.46666 12.7521 3.12682C11.4513 2.79869 10.1329 2.5819 8.79697 2.47643C7.46104 2.37096 6.16025 2.37096 4.89463 2.47643C3.61729 2.5819 2.49229 2.78112 1.51963 3.07408C1.22666 3.17955 0.933691 3.15612 0.640723 3.00377C0.347754 2.85143 0.148535 2.61705 0.0430664 2.30065C-0.0389648 1.98424 -0.0038086 1.68248 0.148535 1.39537C0.300879 1.10826 0.535254 0.917834 0.85166 0.824084C1.96494 0.484241 3.23643 0.249866 4.66611 0.120959C6.0958 -0.00794697 7.56064 -0.0108767 9.06065 0.11217C10.5606 0.235217 12.0372 0.4901 13.4903 0.876819C14.9435 1.27526 16.2618 1.82018 17.4454 2.51158C17.7267 2.68737 17.9054 2.93053 17.9815 3.24108C18.0577 3.55162 18.0079 3.84752 17.8321 4.12877Z" fill="#EBC373"/>
</svg>
