<svg width="28" height="32" viewBox="0 0 28 32" fill="none" xmlns="http://www.w3.org/2000/svg">
<path fill-rule="evenodd" clip-rule="evenodd" d="M3.51875 5.54443C2.95752 6.11523 2.829 7.42227 3.23848 8.39844C3.4873 8.99248 4.02051 9.7 5.14912 9.7C6.27637 9.7 6.80957 8.99248 7.0584 8.39912C7.46787 7.42227 7.33935 6.11523 6.77812 5.54443C6.34883 5.10693 5.86211 4.921 5.15049 4.921C4.43613 4.92031 3.94805 5.10625 3.51875 5.54443ZM19.7076 17.577H8.23281V17.9394C8.23281 21.103 10.8065 23.6768 13.9702 23.6768C17.1339 23.6768 19.7076 21.103 19.7076 17.9394V17.577ZM20.882 8.39844C21.1309 8.99248 21.6647 9.7 22.7927 9.7C23.9199 9.7 24.4531 8.99248 24.7019 8.39912C25.1114 7.42227 24.9829 6.11523 24.4217 5.54443C23.9924 5.10693 23.505 4.921 22.794 4.921C22.0797 4.921 21.5916 5.10693 21.1623 5.54443C20.6011 6.11523 20.4726 7.42158 20.882 8.39844ZM21.3824 16.7567V15.166C21.3824 12.8842 19.9865 10.8737 17.8763 10.0623L14.3312 16.6474C14.3089 16.6883 14.28 16.7253 14.2457 16.7567H18.1606V14.9862C18.1606 14.76 18.3445 14.5761 18.5708 14.5761C18.7971 14.5761 18.981 14.76 18.981 14.9862V16.7567H21.3824ZM22.2027 15.166C22.2027 14.0333 21.9033 12.945 21.3332 11.9818C21.4002 11.9777 21.4679 11.975 21.5349 11.975H24.0491C25.9187 11.975 27.4404 13.6245 27.4404 15.6521V16.1265C27.4404 16.4744 27.1574 16.7567 26.8095 16.7567H22.2027V15.166ZM7.4125 17.577V17.9394C7.4125 21.5549 10.354 24.4971 13.9702 24.4971C17.5857 24.4971 20.5279 21.5549 20.5279 17.9394V17.577H26.8095C27.0357 17.577 27.249 17.5237 27.4404 17.4308V19.7666C27.4404 20.0633 27.1984 20.3046 26.9018 20.3046H24.6001C24.0026 20.3046 23.4961 20.6717 23.3095 21.2391C23.1563 21.7053 22.9656 22.164 22.7435 22.6035C22.4734 23.1367 22.5719 23.7554 22.9943 24.1778L24.6227 25.8062C24.7238 25.9073 24.7792 26.042 24.7792 26.1869C24.7792 26.3305 24.7238 26.4658 24.6227 26.567L22.3661 28.8235C22.2649 28.9247 22.1296 28.9808 21.9853 28.9808C21.8411 28.9808 21.7064 28.9247 21.6046 28.8235L19.9763 27.1952C19.5531 26.7728 18.9352 26.6743 18.402 26.9443C17.9631 27.1665 17.5037 27.3572 17.0375 27.5104C16.4701 27.697 16.103 28.2035 16.103 28.801V31.1026C16.103 31.3993 15.8617 31.6406 15.5644 31.6406H12.3727C12.076 31.6406 11.8347 31.3993 11.8347 31.1026V28.801C11.8347 28.2035 11.4676 27.697 10.9002 27.5104C10.434 27.3572 9.97461 27.1665 9.53574 26.9443C9.00185 26.6743 8.38389 26.7728 7.96143 27.1959L6.3331 28.8235C6.12324 29.0334 5.78213 29.0334 5.57227 28.8235L3.31572 26.567C3.10586 26.3571 3.10586 26.016 3.31572 25.8062L4.94404 24.1778C5.36719 23.7547 5.46562 23.1367 5.19492 22.6035C4.97275 22.164 4.78203 21.7053 4.62891 21.2391C4.44228 20.6717 3.93574 20.3046 3.33828 20.3046H1.03867C0.741992 20.3046 0.500684 20.0633 0.500684 19.7666V17.4308C0.691406 17.5237 0.905371 17.577 1.13096 17.577H7.4125ZM5.73701 15.166C5.73701 14.0333 6.03642 12.945 6.60654 11.9818C6.53955 11.9777 6.47256 11.975 6.40488 11.975H3.89131C2.02168 11.975 0.5 13.6245 0.5 15.6521V16.1265C0.5 16.4744 0.783008 16.7567 1.13027 16.7567H5.73633V15.166H5.73701ZM13.6093 16.6474C13.6318 16.6891 13.6612 16.726 13.6947 16.7567H9.77978V14.9862C9.77978 14.76 9.5959 14.5761 9.36963 14.5761C9.14267 14.5761 8.95947 14.76 8.95947 14.9862V16.7567H6.55801V15.166C6.55801 12.8842 7.95391 10.8737 10.0642 10.0623L13.6093 16.6474ZM13.7795 11.787C13.895 11.3659 13.8191 10.938 13.5648 10.5825L12.9332 9.69863H15.0072L14.3776 10.5798C14.122 10.9373 14.0461 11.368 14.165 11.7918L14.798 14.0518L13.9709 15.5885L13.154 14.0716L13.7795 11.787ZM11.4751 1.29111C10.6001 2.18184 10.4005 4.12871 11.0301 5.63125C11.3432 6.37842 12.1416 7.63145 13.9709 7.63145C15.7988 7.63145 16.5966 6.37842 16.9103 5.63125C17.5406 4.12871 17.341 2.18184 16.4653 1.29111C15.8132 0.628027 15.0448 0.332031 13.9736 0.332031C12.8977 0.332031 12.1272 0.628027 11.4751 1.29111Z" fill="#EBC373"/>
</svg>
