<svg width="18" height="16" viewBox="0 0 18 16" fill="none" xmlns="http://www.w3.org/2000/svg">
<path d="M16.1719 4.33594C16.1719 4.40625 16.1719 4.48242 16.1719 4.56445C16.1719 4.64648 16.1719 4.72266 16.1719 4.79297C16.1719 6.01172 15.9434 7.24805 15.4863 8.50195C15.0293 9.74414 14.3555 10.8691 13.4648 11.877C12.5742 12.8848 11.4727 13.7109 10.1602 14.3555C8.85938 14.9883 7.35938 15.3047 5.66016 15.3047C5.14453 15.3047 4.63477 15.2695 4.13086 15.1992C3.62695 15.1289 3.1377 15.0234 2.66309 14.8828C2.18848 14.7422 1.72852 14.5664 1.2832 14.3555C0.837891 14.1562 0.410156 13.9219 0 13.6523C0.140625 13.6641 0.287109 13.6729 0.439453 13.6787C0.591797 13.6846 0.738281 13.6875 0.878906 13.6875C1.73438 13.6875 2.55762 13.5527 3.34863 13.2832C4.13965 13.0137 4.85156 12.6211 5.48438 12.1055C4.67578 12.1055 3.95508 11.8623 3.32227 11.376C2.68945 10.8896 2.25 10.2773 2.00391 9.53906C2.12109 9.57422 2.23535 9.59473 2.34668 9.60059C2.45801 9.60645 2.57812 9.60938 2.70703 9.60938C2.88281 9.60938 3.0498 9.60059 3.20801 9.58301C3.36621 9.56543 3.52734 9.53906 3.69141 9.50391C2.84766 9.32812 2.14453 8.90039 1.58203 8.2207C1.01953 7.54102 0.738281 6.76172 0.738281 5.88281C0.738281 5.87109 0.738281 5.8623 0.738281 5.85645C0.738281 5.85059 0.738281 5.83594 0.738281 5.8125C0.984375 5.95312 1.24512 6.06445 1.52051 6.14648C1.7959 6.22852 2.08594 6.26953 2.39062 6.26953C1.89844 5.95312 1.5 5.52246 1.19531 4.97754C0.890625 4.43262 0.738281 3.84375 0.738281 3.21094C0.738281 2.88281 0.785156 2.56055 0.878906 2.24414C0.972656 1.92773 1.10156 1.62891 1.26562 1.34766C1.71094 1.91016 2.21484 2.41992 2.77734 2.87695C3.33984 3.33398 3.94336 3.72949 4.58789 4.06348C5.23242 4.39746 5.91211 4.66406 6.62695 4.86328C7.35352 5.0625 8.09766 5.17969 8.85938 5.21484C8.82422 5.07422 8.79785 4.93359 8.78027 4.79297C8.7627 4.65234 8.75391 4.51172 8.75391 4.37109C8.75391 3.86719 8.84766 3.38672 9.03516 2.92969C9.23438 2.48438 9.50098 2.09473 9.83496 1.76074C10.1689 1.42676 10.5586 1.16602 11.0039 0.978516C11.4492 0.779297 11.9297 0.679688 12.4453 0.679688C12.9844 0.679688 13.4854 0.785156 13.9482 0.996094C14.4111 1.20703 14.8125 1.48828 15.1523 1.83984C15.5742 1.75781 15.9844 1.64355 16.3828 1.49707C16.7812 1.35059 17.1562 1.17188 17.5078 0.960938C17.3672 1.38281 17.1562 1.76953 16.875 2.12109C16.5938 2.47266 16.2656 2.76562 15.8906 3C16.2539 2.95312 16.6113 2.88281 16.9629 2.78906C17.3145 2.69531 17.6602 2.56641 18 2.40234C17.7539 2.76562 17.4756 3.11133 17.165 3.43945C16.8545 3.76758 16.5234 4.06641 16.1719 4.33594Z" fill="#EBC373"/>
</svg>
